g Exported Mesh Combined Mesh 
v 0.008458755 0.02965264 0.07297769
v 0.007147972 0.02989996 0.07262433
v 0.007633606 0.02995488 0.07235537
v 0.006777133 0.03025141 0.07170921
v 0.005768254 0.0301345 0.07225202
v 0.006380135 0.03030962 0.07162488
v 0.00431965 0.0303524 0.07186071
v 0.005889317 0.03054137 0.07103913
v 0.004970028 0.03082331 0.07034509
v 0.003779782 0.03045864 0.07161817
v 0.00381046 0.03091643 0.07022055
v 0.004133755 0.03106387 0.06971353
v 0.00280205 0.03054876 0.0714504
v 0.001177882 0.03098047 0.07021709
v 0.003265847 0.03129761 0.06905789
v 0.002366208 0.03152339 0.06837814
v -3.062228E-13 0.0315569 0.06834173
v 0.001434913 0.03174095 0.06767429
v -0.001277738 0.03097938 0.07021717
v -0.00236744 0.0315231 0.06837909
v -0.001434913 0.03174096 0.06767429
v 0.001168456 0.03052572 0.07161473
v 0.001411627 0.03031676 0.07222436
v -1.426182E-13 0.03005464 0.07300984
v -0.001267512 0.03052457 0.07161482
v -0.001411693 0.03031678 0.07222433
v -0.00280205 0.03054876 0.0714504
v -0.003730387 0.03091955 0.07022039
v -0.003267472 0.03129718 0.06905914
v -0.004134971 0.03106351 0.06971446
v -0.004970019 0.0308233 0.07034508
v -0.003700362 0.0304619 0.07161802
v -0.004321413 0.03035217 0.0718611
v -0.005884885 0.03054277 0.07103573
v -0.006123954 0.0303278 0.07162401
v -0.006771292 0.03025341 0.07170469
v -0.005770732 0.03013414 0.07225251
v -0.007149832 0.02989968 0.07262471
v -0.008458755 0.0296527 0.07297769
v -0.009167464 0.02990547 0.07208456
v -0.008080898 0.03069141 0.07009485
v -0.008234563 0.03024415 0.07138085
v -0.007264822 0.03057389 0.07064909
v -0.007706404 0.03082816 0.06976857
v -0.005214449 0.03120273 0.06910126
v -0.006923996 0.03143962 0.06797535
v -0.006181941 0.03163991 0.0674474
v -0.005832714 0.03206521 0.06597509
v -0.004560153 0.03172375 0.06744325
v -0.004604676 0.03234169 0.06512102
v -0.002274755 0.03194941 0.06688007
v -0.002962656 0.03239423 0.06511823
v -0.001205051 0.03217935 0.06607137
v -0.0009311268 0.03240374 0.06519778
v -0.004279409 0.03145977 0.06839497
v -0.003299562 0.03170933 0.06765459
v -0.002974833 0.03267271 0.06395448
v -0.0006390227 0.03263006 0.06426606
v -0.0003286699 0.03285554 0.06327596
v -0.002985652 0.0329328 0.06278156
v -6.405604E-13 0.03307741 0.06222722
v -0.002999753 0.03330234 0.06091706
v 0.0003311928 0.03333028 0.0609153
v -0.002944962 0.03334697 0.06067755
v -0.002341342 0.03354614 0.0595694
v 0.0003323058 0.03364442 0.05903852
v -0.002087642 0.03362288 0.05910356
v -0.001808711 0.03370244 0.05859134
v 0.0003326923 0.03377996 0.05809811
v -0.001504496 0.03378343 0.05803262
v -0.001174945 0.03386445 0.05742728
v 0.0003329621 0.03390073 0.05715631
v -0.00107272 0.03388825 0.0572395
v -0.0009409327 0.0339179 0.05699739
v -0.0007795533 0.03395259 0.05670091
v 0.0007801587 0.03395247 0.05670202
v 0.0003331126 0.03400639 0.0562131
v 0.0005885512 0.03399149 0.05634997
v 0.0002528159 0.03405438 0.05573304
v 0.001808947 0.03370237 0.05859177
v 0.00208782 0.03362282 0.05910389
v 0.002341344 0.03354614 0.0595694
v 0.001504673 0.03378338 0.05803294
v 0.001174946 0.03386445 0.05742729
v 0.001073325 0.03388811 0.05724061
v 0.0009417394 0.03391773 0.05699887
v -0.00025241 0.03405445 0.0557323
v -6.418327E-13 0.03409687 0.05526843
v -0.0005885507 0.03399149 0.05634997
v 0.002945077 0.03334692 0.06067776
v 0.00349931 0.03314312 0.061695
v 0.0003296441 0.03296101 0.06278647
v 0.0003287565 0.03285548 0.06327624
v 0.003644074 0.03291688 0.06278013
v 0.003630798 0.03265573 0.06395542
v 0.0040904 0.03290362 0.06277961
v 0.004648936 0.03265629 0.06380425
v 0.005251533 0.03236677 0.06490944
v 0.00361589 0.03237665 0.06511922
v 0.005831521 0.03206586 0.0659729
v 0.003581097 0.03176107 0.06744137
v 0.006503263 0.03162024 0.06744844
v 0.004277682 0.03146024 0.06839363
v 0.005214459 0.03120275 0.06910126
v 0.0006391379 0.03262997 0.06426643
v 0.0009312131 0.03240367 0.06519806
v 0.001205051 0.03217934 0.06607137
v 0.002273007 0.0319498 0.06687873
v 0.003297256 0.03170991 0.06765281
v 0.006924002 0.03143963 0.06797536
v 0.00642756 0.03092286 0.06976388
v 0.006268428 0.03089077 0.06989712
v 0.007278495 0.03056933 0.07065956
v 0.008084595 0.03068885 0.07010161
v 0.008244812 0.03024048 0.07138865
v 0.009167464 0.02990542 0.07208456
v -0.003499307 0.03314313 0.06169499
v -0.004090779 0.03290346 0.0627803
v -0.004648931 0.03265629 0.06380423
v -0.004623772 0.03262186 0.06395715
v -0.005252431 0.03236631 0.06491109

vn 0.09272034 0.934467 0.3437651
vn 0.07761171 0.9385404 0.3363308
vn 0.08179801 0.9387238 0.3348232
vn 0.07139216 0.9427513 0.3257656
vn 0.06234494 0.9421803 0.3292558
vn 0.06721994 0.9436823 0.3239526
vn 0.04541203 0.9454527 0.3225785
vn 0.06087961 0.9466091 0.3165832
vn 0.04993551 0.9503158 0.307256
vn 0.0387035 0.9468769 0.319259
vn 0.03701452 0.9518948 0.3041811
vn 0.03989314 0.9534506 0.2988991
vn 0.02705538 0.9482621 0.3163339
vn 0.009756301 0.9532951 0.301883
vn 0.029426 0.9564754 0.2903254
vn 0.01957661 0.959353 0.2815293
vn 3.271535E-06 0.9599429 0.2801959
vn 0.0107875 0.9620935 0.2725064
vn -0.010649 0.9532714 0.3019274
vn -0.01959166 0.9593491 0.2815412
vn -0.01078465 0.9620937 0.272506
vn 0.01033069 0.9484196 0.3168495
vn 0.01303144 0.9462302 0.3232314
vn 3.806529E-06 0.9437515 0.3306556
vn -0.01126972 0.9483933 0.316896
vn -0.01302881 0.9462304 0.3232309
vn -0.02706182 0.9482619 0.3163338
vn -0.0361165 0.9519622 0.3040783
vn -0.02945414 0.9564696 0.2903417
vn -0.03992114 0.9534454 0.2989117
vn -0.04994374 0.9503152 0.3072565
vn -0.03777466 0.9469507 0.3191512
vn -0.04544662 0.9454486 0.3225858
vn -0.06082121 0.9466282 0.3165375
vn -0.06460016 0.9440593 0.3233867
vn -0.07129715 0.9427801 0.3257031
vn -0.06236815 0.9421751 0.3292664
vn -0.07759629 0.9385387 0.3363388
vn -0.09270163 0.9344691 0.3437644
vn -0.0973811 0.9366122 0.3365627
vn -0.07954942 0.9470643 0.3110323
vn -0.08493967 0.9415467 0.3259985
vn -0.07325391 0.9461625 0.3152943
vn -0.07507983 0.9489754 0.3062822
vn -0.05026699 0.9546599 0.293424
vn -0.06393916 0.9570022 0.2829461
vn -0.05646045 0.9597949 0.2749651
vn -0.05090852 0.965487 0.2554277
vn -0.04114515 0.9612914 0.2724443
vn -0.03861102 0.9694086 0.2423967
vn -0.01760657 0.9645936 0.2631525
vn -0.02260439 0.9703163 0.2407808
vn -0.008298303 0.9676087 0.2523181
vn -0.00603195 0.9705576 0.2407935
vn -0.0395871 0.9580972 0.2836947
vn -0.02826012 0.9614261 0.2736079
vn -0.02183147 0.9741399 0.2248887
vn -0.003870371 0.9736187 0.2281481
vn -0.001848003 0.9767646 0.2143069
vn -0.02111134 0.9778489 0.2082448
vn 2.19165E-06 0.979961 0.19919
vn -0.02008706 0.983369 0.1805045
vn 0.001693158 0.9837363 0.1796105
vn -0.01949204 0.9840543 0.176797
vn -0.01419113 0.9871463 0.1591881
vn 0.001584244 0.9886447 0.1502633
vn -0.01217448 0.9883577 0.1516608
vn -0.01009764 0.9896281 0.1432978
vn 0.001536389 0.9908459 0.1349886
vn -0.007996756 0.9909393 0.1340726
vn -0.005909934 0.9922701 0.1239559
vn 0.001492963 0.9928546 0.1193217
vn -0.005301828 0.9926637 0.1207915
vn -0.004544895 0.9931575 0.1166938
vn -0.003659044 0.9937411 0.1116482
vn 0.003664053 0.9937389 0.1116675
vn 0.001453989 0.9946522 0.1032712
vn 0.00267006 0.9944012 0.1056369
vn 0.001077365 0.9954801 0.09496494
vn 0.01009987 0.9896269 0.1433055
vn 0.01217568 0.9883568 0.1516666
vn 0.01419018 0.9871462 0.1591887
vn 0.007999049 0.9909384 0.1340785
vn 0.005911475 0.9922701 0.1239564
vn 0.005306997 0.9926614 0.1208107
vn 0.004551144 0.9931546 0.1167193
vn -0.001073847 0.9954813 0.09495184
vn 7.798595E-07 0.9962221 0.08684106
vn -0.002668267 0.9944012 0.1056366
vn 0.01948973 0.9840537 0.1768007
vn 0.02499953 0.9809588 0.1926004
vn 0.001819554 0.9782717 0.207319
vn 0.001853182 0.9767638 0.214311
vn 0.02717663 0.9776013 0.2087034
vn 0.02803337 0.9738585 0.2254191
vn 0.03139509 0.9773968 0.2090689
vn 0.03752879 0.9738026 0.2242766
vn 0.04426153 0.9696862 0.2403115
vn 0.02895163 0.9700068 0.2413475
vn 0.05089638 0.965496 0.255396
vn 0.03099475 0.9620044 0.2712689
vn 0.05929063 0.9594557 0.2755526
vn 0.03955473 0.958104 0.2836761
vn 0.05026148 0.9546604 0.2934234
vn 0.003875766 0.9736176 0.2281533
vn 0.006036841 0.9705566 0.2407975
vn 0.008301857 0.9676086 0.2523185
vn 0.01758821 0.9645987 0.2631348
vn 0.02822557 0.9614339 0.2735839
vn 0.06396209 0.9570006 0.2829463
vn 0.0633583 0.9507713 0.3033473
vn 0.06213868 0.9504648 0.3045578
vn 0.07344504 0.9460971 0.3154459
vn 0.0796361 0.9470276 0.3111219
vn 0.08509765 0.9414921 0.3261152
vn 0.09737136 0.9366131 0.3365631
vn -0.0250057 0.9809586 0.1926002
vn -0.03140799 0.9773941 0.2090797
vn -0.03753726 0.9738021 0.2242772
vn -0.03747279 0.9733131 0.226401
vn -0.04427668 0.9696794 0.2403361


vt1 0 0
vt1 0 0
vt1 0 0
vt1 0 0
vt1 0 0
vt1 0 0
vt1 0 0
vt1 0 0
vt1 0 0
vt1 0 0
vt1 0 0
vt1 0 0
vt1 0 0
vt1 0 0
vt1 0 0
vt1 0 0
vt1 0 0
vt1 0 0
vt1 0 0
vt1 0 0
vt1 0 0
vt1 0 0
vt1 0 0
vt1 0 0
vt1 0 0
vt1 0 0
vt1 0 0
vt1 0 0
vt1 0 0
vt1 0 0
vt1 0 0
vt1 0 0
vt1 0 0
vt1 0 0
vt1 0 0
vt1 0 0
vt1 0 0
vt1 0 0
vt1 0 0
vt1 0 0
vt1 0 0
vt1 0 0
vt1 0 0
vt1 0 0
vt1 0 0
vt1 0 0
vt1 0 0
vt1 0 0
vt1 0 0
vt1 0 0
vt1 0 0
vt1 0 0
vt1 0 0
vt1 0 0
vt1 0 0
vt1 0 0
vt1 0 0
vt1 0 0
vt1 0 0
vt1 0 0
vt1 0 0
vt1 0 0
vt1 0 0
vt1 0 0
vt1 0 0
vt1 0 0
vt1 0 0
vt1 0 0
vt1 0 0
vt1 0 0
vt1 0 0
vt1 0 0
vt1 0 0
vt1 0 0
vt1 0 0
vt1 0 0
vt1 0 0
vt1 0 0
vt1 0 0
vt1 0 0
vt1 0 0
vt1 0 0
vt1 0 0
vt1 0 0
vt1 0 0
vt1 0 0
vt1 0 0
vt1 0 0
vt1 0 0
vt1 0 0
vt1 0 0
vt1 0 0
vt1 0 0
vt1 0 0
vt1 0 0
vt1 0 0
vt1 0 0
vt1 0 0
vt1 0 0
vt1 0 0
vt1 0 0
vt1 0 0
vt1 0 0
vt1 0 0
vt1 0 0
vt1 0 0
vt1 0 0
vt1 0 0
vt1 0 0
vt1 0 0
vt1 0 0
vt1 0 0
vt1 0 0
vt1 0 0
vt1 0 0
vt1 0 0
vt1 0 0
vt1 0 0
vt1 0 0
vt1 0 0
vt1 0 0

vt2 0 0
vt2 0 0
vt2 0 0
vt2 0 0
vt2 0 0
vt2 0 0
vt2 0 0
vt2 0 0
vt2 0 0
vt2 0 0
vt2 0 0
vt2 0 0
vt2 0 0
vt2 0 0
vt2 0 0
vt2 0 0
vt2 0 0
vt2 0 0
vt2 0 0
vt2 0 0
vt2 0 0
vt2 0 0
vt2 0 0
vt2 0 0
vt2 0 0
vt2 0 0
vt2 0 0
vt2 0 0
vt2 0 0
vt2 0 0
vt2 0 0
vt2 0 0
vt2 0 0
vt2 0 0
vt2 0 0
vt2 0 0
vt2 0 0
vt2 0 0
vt2 0 0
vt2 0 0
vt2 0 0
vt2 0 0
vt2 0 0
vt2 0 0
vt2 0 0
vt2 0 0
vt2 0 0
vt2 0 0
vt2 0 0
vt2 0 0
vt2 0 0
vt2 0 0
vt2 0 0
vt2 0 0
vt2 0 0
vt2 0 0
vt2 0 0
vt2 0 0
vt2 0 0
vt2 0 0
vt2 0 0
vt2 0 0
vt2 0 0
vt2 0 0
vt2 0 0
vt2 0 0
vt2 0 0
vt2 0 0
vt2 0 0
vt2 0 0
vt2 0 0
vt2 0 0
vt2 0 0
vt2 0 0
vt2 0 0
vt2 0 0
vt2 0 0
vt2 0 0
vt2 0 0
vt2 0 0
vt2 0 0
vt2 0 0
vt2 0 0
vt2 0 0
vt2 0 0
vt2 0 0
vt2 0 0
vt2 0 0
vt2 0 0
vt2 0 0
vt2 0 0
vt2 0 0
vt2 0 0
vt2 0 0
vt2 0 0
vt2 0 0
vt2 0 0
vt2 0 0
vt2 0 0
vt2 0 0
vt2 0 0
vt2 0 0
vt2 0 0
vt2 0 0
vt2 0 0
vt2 0 0
vt2 0 0
vt2 0 0
vt2 0 0
vt2 0 0
vt2 0 0
vt2 0 0
vt2 0 0
vt2 0 0
vt2 0 0
vt2 0 0
vt2 0 0
vt2 0 0
vt2 0 0
vt2 0 0
vt2 0 0

vc 1 1 1 1
vc 1 1 1 1
vc 1 1 1 1
vc 1 1 1 1
vc 1 1 1 1
vc 1 1 1 1
vc 1 1 1 1
vc 1 1 1 1
vc 1 1 1 1
vc 1 1 1 1
vc 1 1 1 1
vc 1 1 1 1
vc 1 1 1 1
vc 1 1 1 1
vc 1 1 1 1
vc 1 1 1 1
vc 1 1 1 1
vc 1 1 1 1
vc 1 1 1 1
vc 1 1 1 1
vc 1 1 1 1
vc 1 1 1 1
vc 1 1 1 1
vc 1 1 1 1
vc 1 1 1 1
vc 1 1 1 1
vc 1 1 1 1
vc 1 1 1 1
vc 1 1 1 1
vc 1 1 1 1
vc 1 1 1 1
vc 1 1 1 1
vc 1 1 1 1
vc 1 1 1 1
vc 1 1 1 1
vc 1 1 1 1
vc 1 1 1 1
vc 1 1 1 1
vc 1 1 1 1
vc 1 1 1 1
vc 1 1 1 1
vc 1 1 1 1
vc 1 1 1 1
vc 1 1 1 1
vc 1 1 1 1
vc 1 1 1 1
vc 1 1 1 1
vc 1 1 1 1
vc 1 1 1 1
vc 1 1 1 1
vc 1 1 1 1
vc 1 1 1 1
vc 1 1 1 1
vc 1 1 1 1
vc 1 1 1 1
vc 1 1 1 1
vc 1 1 1 1
vc 1 1 1 1
vc 1 1 1 1
vc 1 1 1 1
vc 1 1 1 1
vc 1 1 1 1
vc 1 1 1 1
vc 1 1 1 1
vc 1 1 1 1
vc 1 1 1 1
vc 1 1 1 1
vc 1 1 1 1
vc 1 1 1 1
vc 1 1 1 1
vc 1 1 1 1
vc 1 1 1 1
vc 1 1 1 1
vc 1 1 1 1
vc 1 1 1 1
vc 1 1 1 1
vc 1 1 1 1
vc 1 1 1 1
vc 1 1 1 1
vc 1 1 1 1
vc 1 1 1 1
vc 1 1 1 1
vc 1 1 1 1
vc 1 1 1 1
vc 1 1 1 1
vc 1 1 1 1
vc 1 1 1 1
vc 1 1 1 1
vc 1 1 1 1
vc 1 1 1 1
vc 1 1 1 1
vc 1 1 1 1
vc 1 1 1 1
vc 1 1 1 1
vc 1 1 1 1
vc 1 1 1 1
vc 1 1 1 1
vc 1 1 1 1
vc 1 1 1 1
vc 1 1 1 1
vc 1 1 1 1
vc 1 1 1 1
vc 1 1 1 1
vc 1 1 1 1
vc 1 1 1 1
vc 1 1 1 1
vc 1 1 1 1
vc 1 1 1 1
vc 1 1 1 1
vc 1 1 1 1
vc 1 1 1 1
vc 1 1 1 1
vc 1 1 1 1
vc 1 1 1 1
vc 1 1 1 1
vc 1 1 1 1
vc 1 1 1 1
vc 1 1 1 1
vc 1 1 1 1
vc 1 1 1 1
vc 1 1 1 1
f 1/1/1 3/3/3 2/2/2
f 2/2/2 3/3/3 4/4/4
f 2/2/2 4/4/4 5/5/5
f 5/5/5 4/4/4 6/6/6
f 5/5/5 6/6/6 7/7/7
f 7/7/7 6/6/6 8/8/8
f 4/4/4 8/8/8 6/6/6
f 7/7/7 8/8/8 9/9/9
f 9/9/9 10/10/10 7/7/7
f 9/9/9 11/11/11 10/10/10
f 12/12/12 11/11/11 9/9/9
f 7/7/7 10/10/10 13/13/13
f 13/13/13 10/10/10 11/11/11
f 13/13/13 11/11/11 14/14/14
f 14/14/14 11/11/11 15/15/15
f 12/12/12 15/15/15 11/11/11
f 14/14/14 15/15/15 16/16/16
f 16/16/16 17/17/17 14/14/14
f 18/18/18 17/17/17 16/16/16
f 17/17/17 19/19/19 14/14/14
f 17/17/17 20/20/20 19/19/19
f 21/21/21 20/20/20 17/17/17
f 14/14/14 19/19/19 22/22/22
f 14/14/14 22/22/22 13/13/13
f 13/13/13 22/22/22 23/23/23
f 23/23/23 22/22/22 24/24/24
f 24/24/24 22/22/22 25/25/25
f 25/25/25 22/22/22 19/19/19
f 24/24/24 25/25/25 26/26/26
f 26/26/26 25/25/25 27/27/27
f 27/27/27 25/25/25 19/19/19
f 27/27/27 19/19/19 28/28/28
f 28/28/28 19/19/19 29/29/29
f 20/20/20 29/29/29 19/19/19
f 28/28/28 29/29/29 30/30/30
f 30/30/30 31/31/31 28/28/28
f 28/28/28 31/31/31 32/32/32
f 28/28/28 32/32/32 27/27/27
f 27/27/27 32/32/32 33/33/33
f 33/33/33 32/32/32 31/31/31
f 33/33/33 31/31/31 34/34/34
f 33/33/33 34/34/34 35/35/35
f 35/35/35 34/34/34 36/36/36
f 35/35/35 36/36/36 37/37/37
f 37/37/37 33/33/33 35/35/35
f 37/37/37 36/36/36 38/38/38
f 38/38/38 36/36/36 39/39/39
f 40/40/40 42/42/42 41/41/41
f 41/41/41 42/42/42 43/43/43
f 41/41/41 43/43/43 44/44/44
f 44/44/44 43/43/43 45/45/45
f 44/44/44 45/45/45 46/46/46
f 46/46/46 41/41/41 44/44/44
f 46/46/46 45/45/45 47/47/47
f 46/46/46 47/47/47 48/48/48
f 48/48/48 47/47/47 49/49/49
f 48/48/48 49/49/49 50/50/50
f 50/50/50 49/49/49 51/51/51
f 50/50/50 51/51/51 52/52/52
f 52/52/52 51/51/51 53/53/53
f 52/52/52 53/53/53 54/54/54
f 45/45/45 55/55/55 47/47/47
f 47/47/47 55/55/55 49/49/49
f 55/55/55 56/56/56 49/49/49
f 49/49/49 56/56/56 51/51/51
f 52/52/52 54/54/54 57/57/57
f 57/57/57 54/54/54 58/58/58
f 57/57/57 58/58/58 59/59/59
f 57/57/57 59/59/59 60/60/60
f 60/60/60 59/59/59 61/61/61
f 60/60/60 61/61/61 62/62/62
f 62/62/62 61/61/61 63/63/63
f 62/62/62 63/63/63 64/64/64
f 64/64/64 63/63/63 65/65/65
f 65/65/65 63/63/63 66/66/66
f 65/65/65 66/66/66 67/67/67
f 67/67/67 66/66/66 68/68/68
f 68/68/68 66/66/66 69/69/69
f 68/68/68 69/69/69 70/70/70
f 70/70/70 69/69/69 71/71/71
f 71/71/71 69/69/69 72/72/72
f 71/71/71 72/72/72 73/73/73
f 73/73/73 72/72/72 74/74/74
f 74/74/74 72/72/72 75/75/75
f 75/75/75 72/72/72 76/76/76
f 75/75/75 76/76/76 77/77/77
f 77/77/77 76/76/76 78/78/78
f 77/77/77 78/78/78 79/79/79
f 66/66/66 80/80/80 69/69/69
f 66/66/66 81/81/81 80/80/80
f 66/66/66 82/82/82 81/81/81
f 69/69/69 80/80/80 83/83/83
f 69/69/69 83/83/83 84/84/84
f 69/69/69 84/84/84 72/72/72
f 72/72/72 84/84/84 85/85/85
f 72/72/72 85/85/85 86/86/86
f 86/86/86 76/76/76 72/72/72
f 79/79/79 87/87/87 77/77/77
f 88/88/88 87/87/87 79/79/79
f 87/87/87 89/89/89 77/77/77
f 77/77/77 89/89/89 75/75/75
f 63/63/63 90/90/90 82/82/82
f 63/63/63 91/91/91 90/90/90
f 92/92/92 91/91/91 63/63/63
f 63/63/63 61/61/61 92/92/92
f 92/92/92 61/61/61 93/93/93
f 92/92/92 93/93/93 94/94/94
f 94/94/94 91/91/91 92/92/92
f 94/94/94 93/93/93 95/95/95
f 94/94/94 95/95/95 96/96/96
f 96/96/96 91/91/91 94/94/94
f 96/96/96 95/95/95 97/97/97
f 97/97/97 95/95/95 98/98/98
f 98/98/98 95/95/95 99/99/99
f 98/98/98 99/99/99 100/100/100
f 100/100/100 99/99/99 101/101/101
f 100/100/100 101/101/101 102/102/102
f 102/102/102 101/101/101 103/103/103
f 102/102/102 103/103/103 104/104/104
f 93/93/93 105/105/105 95/95/95
f 95/95/95 105/105/105 106/106/106
f 95/95/95 106/106/106 99/99/99
f 99/99/99 106/106/106 107/107/107
f 99/99/99 107/107/107 108/108/108
f 99/99/99 108/108/108 101/101/101
f 101/101/101 108/108/108 109/109/109
f 101/101/101 109/109/109 103/103/103
f 104/104/104 110/110/110 102/102/102
f 102/102/102 110/110/110 100/100/100
f 104/104/104 111/111/111 110/110/110
f 112/112/112 111/111/111 104/104/104
f 112/112/112 113/113/113 111/111/111
f 111/111/111 113/113/113 114/114/114
f 111/111/111 114/114/114 110/110/110
f 113/113/113 115/115/115 114/114/114
f 114/114/114 115/115/115 116/116/116
f 63/63/63 82/82/82 66/66/66
f 64/64/64 117/117/117 62/62/62
f 62/62/62 117/117/117 60/60/60
f 117/117/117 118/118/118 60/60/60
f 60/60/60 118/118/118 57/57/57
f 118/118/118 119/119/119 57/57/57
f 57/57/57 119/119/119 120/120/120
f 57/57/57 120/120/120 52/52/52
f 52/52/52 120/120/120 50/50/50
f 119/119/119 121/121/121 120/120/120
f 120/120/120 121/121/121 50/50/50
f 121/121/121 48/48/48 50/50/50

